<svg width="19" height="17" fill="none" xmlns="http://www.w3.org/2000/svg"><path d="M9.57663 17c-.30085 0-.6017-.1-.80227-.4-5.41533-6.1-6.71902-7.5-7.01987-7.9C1.0525 7.8.651367 6.6.651367 5.4c0-3 2.406813-5.4 5.515613-5.4 1.30369 0 2.50709.5 3.50993 1.3C10.6797.5 11.9834 0 13.1868 0c3.0086 0 5.5157 2.4 5.5157 5.4 0 1.3-.5015 2.5-1.3037 3.4l-7.0199 7.9c-.2006.2-.40114.3-.80227.3ZM3.5596 7.5c.30085.4 3.50993 4 6.11731 6.9l6.21759-7c.5014-.5.702-1.2.702-2 0-1.8-1.5043-3.3-3.3094-3.3-1.0028 0-2.0056.5-2.7076 1.3-.3009.3-.60174.4-.90259.4-.30085 0-.6017-.2-.80227-.4-.70199-.8-1.70482-1.3-2.70766-1.3-1.80511 0-3.30937 1.5-3.30937 3.3-.10028.9.30085 1.6.70199 2.1-.10029 0-.10029 0 0 0Z" fill="#000"/></svg>