<svg width="75" height="70" fill="none" xmlns="http://www.w3.org/2000/svg"><path d="M70.5757 46.7H4.6103C2.30452 46.7.5 48.6.5 51v3.5c0 2.4 1.90477 4.3 4.1103 4.3h.90227v1.1c0 5.5 4.3108 10.1 9.62413 10.1h44.7121c5.3133 0 9.6241-4.5 9.6241-10.1v-1.1h.9023c2.3058 0 4.1103-1.9 4.1103-4.3V51c.2005-2.3-1.7043-4.3-3.9098-4.3Zm-3.9098 13.2c0 3.9-3.0076 7-6.7169 7H15.1367c-3.7093 0-6.71685-3.2-6.71685-7v-1.1H66.6659v1.1Zm5.1128-5.4c0 .7-.6015 1.3-1.203 1.3H4.51005c-.70176 0-1.20301-.6-1.20301-1.3V51c0-.7.60151-1.3 1.20301-1.3H70.4754c.7018 0 1.203.6 1.203 1.3.1003 0 .1003 3.5.1003 3.5ZM16.1392 38.4l5.4136 4.1 5.3133-4.1 5.3133 4.1 5.3133-4.1 5.4136 4.1 5.3133-4.1 5.3133 4.1 5.4136-4.1 5.3133 4.1 6.2156-4.7-1.7043-2.5-4.5113 3.4-5.3133-4.1-5.4136 4.1-5.3133-4.1-5.3133 4.1-5.4136-4.1-5.3133 4.1-5.3133-4.1-5.3133 4.1-5.4136-4.1-5.3133 4.1-4.51132-3.4-1.70428 2.5 6.2156 4.7 5.3133-4.1ZM8.52011 31.5H69.4729c0-.6.1003-1.2.1003-1.9v-1.2C68.8714 12.7 54.8362 0 37.593 0 20.2495 0 6.21432 12.7 5.51257 28.5v1.2c0 .6-.00442 1.2.09583 1.8h2.91171ZM37.593 3c15.6392 0 28.4714 11.3 29.0729 25.5H8.52011C9.12161 14.4 21.9538 3 37.593 3Z" fill="#83B3D3"/><path d="M37.593 17.3c1.052 0 1.9048-.8954 1.9048-2s-.8528-2-1.9048-2-1.9048.8954-1.9048 2 .8528 2 1.9048 2ZM29.7734 12.2c1.052 0 1.9048-.8954 1.9048-2 0-1.10457-.8528-2-1.9048-2s-1.9048.89543-1.9048 2c0 1.1046.8528 2 1.9048 2ZM45.3123 12.2c1.052 0 1.9048-.8954 1.9048-2 0-1.10457-.8528-2-1.9048-2-1.0519 0-1.9047.89543-1.9047 2 0 1.1046.8528 2 1.9047 2Z" fill="#83B3D3"/></svg>