<svg width="139" height="70" fill="none" xmlns="http://www.w3.org/2000/svg"><path d="M139 0H0l59.9312 65.6531c5.2376 5.7959 13.9 5.7959 19.1376 0L139 0Z" fill="#81B3D3"/><path d="M36.804.49745 68.9951 38.2042 101.086.696431 36.804.49745Z" fill="#23A9E1"/><path d="M61.2734 14.625h17.3491c-1.3037-.796-4.4125-4.5766-6.017-3.1837-.1003.0995-4.9139-5.67095-8.0227-2.88523-2.7077 2.48723-4.0114-.29847-7.0199 1.59183-3.6102 2.3878 2.0057 3.6811 3.7105 4.4771Zm26.7758-3.4822-9.8278.0995c3.911-4.47705 5.6159-3.9796 9.8278-.0995Z" fill="#fff"/><path d="M97.8768 3.58164V1.19388h2.1059l-2.1059 2.38776ZM48.5371 12.9337c.1003.0995 2.4068-2.3878 6.1173-4.875 3.4097-2.28827 8.6244-4.87502 14.4409-4.87502s11.1315 2.68624 14.5412 4.97451c3.7105 2.38771 6.017 4.77551 6.1173 4.87501l-2.5071 2.9847c-4.5128.5969-7.7219 3.8801-12.1344 3.1837-2.2062-.398-2.3065-1.5919-2.9082-2.8852-.5014-.9949-1.3037-.7959-2.3065-1.1939-.9026-.398-1.5043-1.0944-3.4097-.6964-1.6045.3979-1.8051 2.8852-3.911 2.7857-1.1032-.0995-1.2035-1.5919-2.808-3.5817-4.1116-4.87497-7.9224-4.17854-10.5298.2985l19.6556 23.1812-20.3576-24.1761ZM40.1133 1.19388v1.89031l-1.6046-1.89031h1.6046Zm54.053 0h3.209v2.9847l-3.209 3.78063V1.19388ZM90.0546 12.5358V1.19388h3.51v7.36227l-3.51 3.97965c.1003 0 0 0 0 0Zm-.5014-10.34702v9.84952c-1.1031-1.0944-2.3065-2.08929-3.6102-2.9847l3.6102-6.86482Zm-4.1116-.29847v6.76533c-.5015-.29847-.9026-.69643-1.5043-.9949-.702-.39796-1.404-.89541-2.2062-1.29337l3.7105-4.47706Zm-4.4125-.19898v4.27808c-1.0029-.49746-2.106-.99491-3.1088-1.49236l3.1088-2.78572Zm.6017-.49745h3.7105l-3.7105 4.57655V1.19388Zm4.3122 0h3.6102l-3.6102 7.0638v-7.0638Zm-8.825 0h3.9111l-3.51 3.08419c-.1002 0-.2005-.09949-.3008-.09949l-.1003-2.9847Zm-.5014.39796V3.9796c-1.0028-.39796-2.0057-.69643-3.1088-.89541l3.1088-1.49235Zm-4.2119 0v1.29337c-.702-.09949-1.404-.19898-2.2063-.29847l2.2063-.9949Zm-6.8193 0 2.2062.9949c-.8023 0-1.5042.09949-2.2062.29847V1.59184Zm-4.1117 0 3.1088 1.49235c-1.1031.19898-2.1059.49745-3.1088.89541V1.59184Zm3.6103 1.19388-3.3094-1.59184h3.3094v1.59184Zm3.5099-.39796-2.808-1.29337h2.808v1.29337Zm.702-1.19388h2.9082l-2.9082 1.29337V1.19388Zm3.7105 0h3.2091l-3.2091 1.59184V1.19388ZM60.5712 4.27807l-3.51-3.08419h3.9111v2.9847l-.4011.09949ZM56.961 1.69133l3.1088 2.68623c-1.1032.39796-2.106.89541-3.1088 1.49236V1.69133Zm-4.3122.19898 3.6102 4.47706c-1.3037.69643-2.5071 1.49235-3.6102 2.38776V1.89031Zm-4.212.29847 3.6103 6.96431c-1.3037.99491-2.5071 1.98981-3.6103 3.18371V2.18878Zm3.7105 5.96941-3.6102-7.0638h3.6102v7.0638Zm4.3122-2.48726L52.749 1.09439h3.7105v4.57654ZM43.8238 7.46176l-3.2091-3.78063V1.19388h3.2091v6.26788Zm.6017-6.26788h3.5099V12.3368l-3.5099-4.17861V1.19388ZM69.2959 0h-33.194v14.5256L68.995 54.2221l.2006-.2985 33.0934-39.0001V0H69.2959Z" fill="#491213"/><path d="m66.3877 45.7655 2.6074-4.1786 2.6074 4.1786-2.6074 4.1786-2.6074-4.1786Z" fill="#23A9E1"/><path d="M74.4106 30.4439c-3.4096-1.9898-2.6073-3.4821.2006-4.875 1.5043-.6964 4.8136-3.3827 6.1173-2.4872l-6.3179 7.3622Zm-2.3065 2.4873c-2.0057-.0995-4.3122-.398-6.3179.0995 1.2034.2984 4.2119 1.1938 1.404 1.8903 1.0028 1.3928 2.6074 1.2934 3.6102.0995-.4011-.199-.702-.4975-1.0028-.6965 1.1031-.2984 2.1059-.8954 2.3065-1.3928Zm1.2034-1.5919c-.9025-.7959-1.9054-.7959-2.7077 0-1.2034-2.0893-5.4153-1.3928-7.421-1.6913 1.1032 2.5867 9.6273 3.0842 10.1287 1.6913Zm-6.8193-2.1887c-1.6045-.4975-6.8193-.398-3.4096-1.7909 1.1031-.3979 6.719.0995 3.4096 1.7909Zm2.0057-2.9847c-.5014-1.0944.4011-2.3878 1.7048-1.3929 1.2034.7959-.6017 1.9898-1.7048 1.3929Zm-2.9082.0994c-2.3066.6965-5.3151-.7959-1.6046-1.4923 2.3065-.4975 4.7134.4974 1.6046 1.4923.1002 0-.1003 0 0 0Zm-2.6074-6.1683c-.5014 1.5918-1.5043 1.8903-1.404 0 .1003-2.2883 1.6045-1.6914 3.2091-2.5868 1.3037-.6964 2.0057-3.3826 4.3122-1.7908 1.0028.6964 2.2062.0995 2.5071 1.1939 0-.0995-2.9082 6.6658-1.3037 6.6658-3.2091 0-1.8051-3.7806-.6017-6.3674-1.2034.597-3.1088 4.2781-1.5043 4.9745-.8022 1.0944-3.4096 2.5868-4.7133 1.4924-1.1031-.9949-.5014-2.2883-.5014-3.5816Zm-4.0114 2.7857c-5.6159 0-1.8051-8.5562.1003-8.0587 2.2063.6964 1.9054 8.1582-.1003 8.0587Zm-6.2176-8.1582c-2.6074-.0995-1.5042-2.5868.3009-3.0842 1.7048-.4975 5.2147 1.0944 6.4181 2.1888-1.8051.5969-4.1116.4974-6.1173.5969-.2005-1.9898-.702-1.2934-.6017.2985Z" fill="#DC6243"/><path d="M72.0039 25.6685c-2.9082-2.9847 4.3122-2.6862 5.5156-3.7806.8023.2985 7.0199-5.3724 8.5242-4.9745-1.1031 1.2934-3.4097 5.273-5.0142 5.273-1.3037 0-2.6074-.199-3.6102.6964-1.5043 1.3929-3.9111 2.0893-5.4154 2.7857Z" fill="#F49774"/><path d="M72.906 22.0868c-1.6045.8954-3.1088-2.4872-.3008-2.1888 1.8051.199 3.7105-.1989 5.4153.0995-1.3037 1.4924-3.1088 2.2883-5.1145 2.0893Z" fill="#F4B1A4"/><path d="M51.2452 20.7935c.3008.398.6017.7959.5014 1.3929 0 .3979-.6017.9949-.2006 1.1939l1.5043-1.7909c-.4011-.0995-3.5099-3.7806-3.5099-4.1786l-2.106 1.0944c.1003.398.8023 0 1.2034 0 .5014 0 .9026.398 1.3037.6965-1.1031.8954-3.8108 3.2831-4.1116 3.2831-.1003 0-.702-.3979-.702 0 0 .199.6017.6965.702.796l1.4039 1.6913c.4012-.199-.1002-.4975.1003-.7959.1003-.199 3.2091-2.6863 3.9111-3.3827Zm-3.4097-4.477c.3009-.0995.4012.2984.6017 0l-1.6045-1.8904c-.2006-.2984-.5014-.5969-.5014 0 .1003.398-4.0114 3.6812-4.2119 3.7807-.3009.0995-.5015-.2985-.702.0995.5014.5969.9025 1.0944 1.404 1.6913.2005.199.3008.398.5014.5969.2005.199.1003-.3979.1003-.3979-.1003-.2985.3008-.597.6017-.7959 1.0028-.995 3.5099-3.0842 3.8107-3.0842Zm-5.7161-.597c-1.1032.2985-2.4068-.0995-2.7077-1.2934-.4011-1.1938.4011-2.3877 1.3037-3.0841.9025-.6965 2.3065-.597 2.8079.4974.2006.4975.1003 1.0944-.1002 1.5918-.1003.2985-.4012.597 0 .796.6017-.6965 1.1031-1.3929 1.7048-2.0893-.702-.398-1.0029-1.0944-1.5043-1.6914-.6017-.69639-1.3037-1.39282-2.3065-1.49231-1.9054-.29847-3.6102 1.69131-3.8108 3.38271-.1003.8954.2006 1.7908.8023 2.5867.5014.5969 1.2034 1.0944 1.6045 1.7908.2006.0995 1.8051-.6964 2.106-.7959.2005 0 .1003-.0995.1003-.199-.5015.199 0 0 0 0Zm25.5723 23.4797c-.7019-.4975-2.6073-2.9847-3.0085-3.4822l-.2005-.2984-.2006.0994c-.1003.0995.1003.398 0 .597-.5014.7959-3.7105 3.1837-3.9111 3.3826-.4011.199-.8023-.0994-1.0028.199.5014.597 1.8051 2.2883 2.0057 2.2883.3008 0 .1002-.4975.1002-.5969.1003-.199 1.7049-1.5919 2.3066-2.0893.2005-.199.4011.2984.6017.4974.2005.2985.3008.6964.2005.9949-.1002.199-.5014.597-.2005.7959.4011-.4974 1.5042-1.7908 1.7048-1.9898.2006-.1989-.4011 0-.3009-.0995-.2005.0995-.5014.199-.7019 0-.1003 0-.702-.6964-.6017-.7959.3008-.199.6017-.5969 1.0028-.6964.6017-.0995 1.0028.9949 1.1031 1.3929.1003.3979.1003.7959-.1003 1.0943-.1002.2985-.3008.4975 0 .597l1.404-1.8903c0 .0995-.1003.0995-.2006 0-.1002 0 .1003.0995 0 0Zm-9.2261-8.8546c-.702 0-1.4039.2984-2.0057.7959-1.4039 1.1939-1.6045 3.2832-.5014 4.7755 1.3037 1.6913 3.4097 1.8903 5.1145.6964 1.404-1.1938 1.6045-3.2831.5014-4.7755-.8022-.9949-2.0057-1.4923-3.1088-1.4923Zm1.2034 1.3928c.9026-.0995 1.5043.7959 1.1032 1.7908-.4012.9949-1.404 1.9898-2.4069 2.3878-1.2034.4975-2.0056-.4974-1.5042-1.6913.4011-.9949 1.404-1.9898 2.4068-2.3878.1003 0 .2006-.0995.4011-.0995Zm-2.8079-4.5765c.3008 0 .6017.3979.8023 0l-1.404-1.6914c-.4012.199 0 .398-.1003.597-.2006.2985-1.7048.4974-2.106.5969.1003-.3979.6017-1.6913.8023-1.7908.4011-.2985.6017.2985.8023-.0995l-1.8051-2.0893c-.2006-.199-.4012-.6964-.6017-.3979 0 0 0 .9949-.1003 1.0944-.1003.1989-.6017 2.3877-1.2034 2.8852-.3009.2984-1.5043 1.2933-1.8051 1.3928-.3009.0995-.5014-.3979-.8023 0l1.6045 1.8903c.1003.0995.4012.597.5015.597.3008.0995 0-.597.1002-.6965.1003-.2984 1.6046-1.7908 2.3066-1.8903.9025-.1989 2.0056-.4974 3.0085-.3979.2006 0-.2006 0 0 0Zm24.2687 6.6658c.1003.398.2005.8954.1003 1.2934-.1003.5969-.6017 1.8903-1.404 1.4923-.8023-.3979-1.404-1.0944-2.106-1.6913.5014-.5969 1.0029-1.0944 1.9054-.7959.2006.0995.4011 0 .2006-.199-.3009-.199-2.0057-1.2934-2.106-1.1939-.2005.199.3009.597.1003.9949-.1003.2985-.4011.4975-.6017.7959-.5014-.3979-1.2034-.7959-.702-1.4923.4012-.398.8023-.7959 1.404-.8954.4011-.0995 1.2034.2985 1.3037-.0995-.702-.2985-1.404-.6964-2.106-.9949.1003.4974-2.2062 2.8852-2.7076 3.4821-.1003.0995-.4012.398-.4012.4975 0 .2985.4012.0995.4012.0995.3008-.0995 4.4124 3.2832 4.5127 3.5816.1003.199-.1003.398 0 .4975 0 0 .1003.0995.2006.0995.3008-.2985 2.9082-3.8801 3.5099-3.9796-.5014-.796-1.0028-1.5919-1.5042-2.3878-.4012.199-.1003.6964 0 .8954Zm-4.0114 4.3776c-1.3037-.8954-3.6102.7959-4.0113.9949-.702.2984-1.2034-.398-.8023-.9949.3008-.4975.9025-.7959 1.5043-.7959.2005 0 .9025.0994.9025 0 .1003-.0995.1003-.0995 0-.199-.6017-.398-1.1031-.7959-1.7048-1.0944-.1003.6964-.9026 1.0944-1.3037 1.5918-.5014.597-1.0028 1.2934-1.0028 1.9898 0 .6965.4011 1.3929 1.1031 1.6914.702.3979 1.5042.0994 2.2062-.2985.4012-.2985.8023-.597 1.2034-.7959.6017-.2985 1.5043 0 1.3037.7959-.2005.6964-.9025 1.2934-1.6045 1.4923-.4012.0995-.8023.0995-1.2034-.0994-.3009-.0995-.6017-.4975-.8023-.0995l2.3065 1.5918c.1003-.4974.3009-.6964.702-.9949.5014-.398.9026-.8954 1.3037-1.3929.8023-.8954 1.1031-2.4872-.1003-3.3826Zm17.65-27.9567c0 .0995 0 .0995 0 0l-.9026.9949-.8023.9949c-.2005.1989-.3008.2984 0 .4974.5015-.2985 3.51 4.7755 3.3094 5.472-.5014.1989-4.5128-3.2832-4.613-3.4822 0-.0995.2005-.6964-.1003-.5969-.1003 0-.5014.5969-.6017.6964l-.6017.6964c.2005.2985.3008 0 .6017 0 .2005.0995 1.2034.8954 1.5042 1.0944-.5014 0-1.7048.0995-1.9054.0995-.6017.0995-.3008-.3979-.702-.5969l-1.5042 1.7908-.9026.9949v.0995c.2006.199.1003.0995.4012 0 .3008-.0995 4.3122 3.1837 4.4125 3.3827.2005.2984-.1003.5969.3008.7959l1.2034-1.3929c.1003-.0995.1003-.0995 0-.0995-.3008-.199-.3008.0995-.702.0995-.3008-.0995-2.9082-2.1888-3.8108-2.9847l5.3151-.199c.2006 0 .702.597.702.796-.1003.1989-.3009.3979 0 .4974.3008-.398.6017-.6964.9025-1.0944l.1003-.199c.1003 0 .1003-.0995.1003-.199l.1003-.0994c.3008-.2985 1.2034-1.2934 1.1031-1.3929-.3008-.2985-.4011.2985-.8023 0-.2005-.199-.8022-1.1939-.9025-1.3929-.2006-.2984.4011-.5969.6017-.6964.5014-.2985 2.1059-.7959 2.3065.199 0 .199-.2006.3979-.1003.4974 0 0 .1003.199.2006.0995l2.1057-2.5867-.2-.199c-.502.4975-5.5159-1.4923-5.8168-1.7908-.1003-.199-.1003-.7959-.3008-.7959Zm-.2006 2.5867c.8023.2985 1.5043.5969 2.3065.9949-.2005.0995-.4011.199-.6017.2985-.2005.0995-.4011.2984-.6017.4974l-1.1031-1.7908Zm-6.6187 7.6607c-1.1032-.0994-2.2063.398-3.0085 1.2934-1.2035 1.4924-1.1032 3.6811.4011 4.875 1.5042 1.1939 3.7105.8954 4.9139-.4974 1.2034-1.4924 1.1031-3.6812-.4011-4.875-.5015-.398-1.2034-.6965-1.9054-.796Zm-1.404 1.5919c.6017 0 1.3037.3979 1.7048.6964.8023.4975 2.2063 1.6913 1.5043 2.6862 0-.0994.1003-.0994-.1003.0995-.8023.796-2.2062.0995-2.9082-.4974-.702-.4975-2.0057-1.6913-1.2034-2.6862.3008-.199.6017-.2985 1.0028-.2985Zm-3.1088 4.2781c-1.2034-.0995-2.4068.4974-3.3094 1.5918-.6017.7959-1.3037 1.4923-1.9054 2.2883.2006.2984.5015-.0995.8023.0995.3009.1989 4.1117 3.2831 4.1117 3.4821.1002.2985-.2006.398.1002.597.1003.0994 2.9083-3.3827 3.2091-3.9797.4011-1.0943.1003-2.3877-.8023-3.1836.1003.0995.2006.0995 0 0-.8022-.597-1.5042-.8954-2.2062-.8954Zm-1.1031 1.5918h.3008c1.404.398 3.4097 2.0893 2.106 3.5816-.2006.199 0 0-.4011.398-.2006.199-4.212-2.9847-4.0114-3.1837.4011-.4974 1.3037-.8954 2.0057-.7959Z" fill="#fff"/></svg>