<svg width="25" height="14" fill="none" xmlns="http://www.w3.org/2000/svg"><path fill-rule="evenodd" clip-rule="evenodd" d="M24.1164.948c.166-.546 0-.948-.795-.948h-2.625c-.668 0-.976.347-1.143.73 0 0-1.335 3.196-3.226 5.272-.612.602-.89.793-1.224.793-.167 0-.418-.191-.418-.738V.948c0-.656-.184-.948-.74-.948H9.81738c-.417 0-.668.304-.668.593 0 .621.94602.765 1.04302 2.513v3.798c0 .833-.153.984-.48702.984-.89 0-3.055-3.211-4.34-6.885C5.11638.288 4.86438 0 4.19338 0h-2.627C.816382 0 .666382.347.666382.73c0 .682.889998 4.07 4.144998 8.551C6.98138 12.341 10.0364 14 12.8194 14c1.669 0 1.875-.368 1.875-1.003v-2.313c0-.737.158-.884.687-.884.39 0 1.057.192 2.615 1.667 1.78 1.749 2.073 2.533 3.075 2.533h2.625c.75 0 1.126-.368.91-1.096-.238-.724-1.088-1.775-2.215-3.022-.612-.71-1.53-1.475-1.809-1.858-.389-.491-.278-.71 0-1.147 0 0 3.2-4.426 3.533-5.929h.001Z" fill="#83B3D3"/></svg>